Patient4_TMGait_0pt4_01_left_02_EMG.mot
version=1
nRows=37
nColumns=33
inDegrees=no
endheader
time	1LAddLong	2LGlutMax	3LGlutMed	4LIliopsoas	5LSemiMemb	6LBicFemLong	7LRecFem	8LVastMed	9LVastLat	10LGasMed	11LTibAnt	12lTibPost	13LPeroneusLong	14LSol	15LExtDigLong	16LFlexDigLong	17RAddLong	18RGlutMax	19RGlutMed	20RIliopsoas	21RSemiMemb	22RBicFemLong	23RRecFem	24RVastMed	25RVastLat	26RGasMed	27RTibAnt	28RTibPost	29RPeroneusLong	30RSol	31RExtDigLong	32RFlexDigLong
1.86	0.00824	-0.1413	0.090332	-0.00351	0.044861	-0.075378	-0.022583	0.016479	-0.056763	0.003967	-0.034027	-0.016785	0.2475	0.41779	0.013733	0.017548	-0.055542	-0.19043	-0.28442	-0.070648	-0.029297	-0.11078	0.19562	-0.050812	-0.085144	-0.065613	0.007629	-0.19531	-2.019	-0.59357	-0.004272	-0.03418
1.861	-0.003052	-0.12283	0.045471	0.021973	-0.011902	0.10452	-0.005188	0.007019	-0.079041	-0.010376	-0.063171	-0.01236	0.53833	0.45212	-0.10773	0.019379	-0.065308	-0.19547	-0.034332	0.066833	-0.026093	-0.11704	0.13672	0.025482	-0.074615	-0.033875	-0.013733	0.19394	-0.85403	0.16251	-0.00473	-0.019684
1.862	-0.006714	-0.06546	0.053406	0.005188	-0.12405	0.14313	-0.058441	0.020294	-0.058441	0.068817	-0.052948	-0.013428	0.82275	0.069885	-0.20355	0.015717	-0.082092	-0.24185	-0.17746	0.20599	-0.036926	-0.097809	0.088959	0.003357	-0.063324	0.008087	-0.094147	0.242	1.254	-0.092163	-0.00412	-0.019531
1.863	0.005188	0.008087	0.052795	0.003815	-0.1944	-0.0177	-0.089722	0.015106	-0.029297	0.10086	-0.059967	-0.003967	0.43823	-0.039825	-0.11826	0.003815	-0.070953	-0.25162	-0.29236	0.25192	-0.032349	-0.091248	0.012665	-0.034332	-0.055237	0.010071	-0.044098	0.17136	2.0288	-0.82214	-0.000916	-0.019226
1.864	0.006866	0.00885	0.048828	0.023956	-0.15305	-0.3212	-0.082092	0.010834	0.014191	0.093689	-0.020599	-0.001526	-0.20004	-0.25848	0.06546	-0.013733	-0.018768	-0.22125	-0.25162	0.14358	-0.040131	-0.10468	0.18509	-0.099487	-0.042725	0.006409	0.01236	-0.090942	1.0645	-0.20859	-0.00061	-0.017395
1.865	0.011292	0.1207	-0.01709	0.016327	0.038605	-0.22919	-0.084991	0.022736	0.026703	0.091248	0.065002	-0.005035	-0.36896	-0.35523	-0.27054	0.001221	0.00824	-0.1564	-0.17166	0.084991	-0.049438	-0.10117	0.36865	-0.098877	-0.061188	0.010529	-0.029144	0.023956	1.2682	0.3714	-0.001831	-0.011597
1.866	0.006256	0.14832	0.045624	0.008698	0.075073	-0.083313	-0.062408	0.027618	0.02182	0.093689	0.14816	0.001526	0.16357	-0.23285	-0.22034	0.010071	-0.027771	-0.2121	-0.10757	0.047913	-0.061798	-0.093689	0.36148	-0.088043	-0.057373	-0.0383	-0.049286	0.11795	1.7328	0.54199	-0.004272	-0.011444
1.867	0.016174	0.18768	0.07782	0.010834	-0.000153	0.14679	-0.007172	0.007935	0.068054	0.015717	0.012512	0.001984	0.43854	-0.12711	-0.1799	0.012817	-0.014191	-0.26916	-0.038452	0.000763	-0.059662	-0.083008	0.26642	-0.079803	-0.057678	-0.044708	-0.029297	0.015411	0.89294	1.0178	-0.002441	-0.011139
1.868	0.006104	0.24246	0.038605	0.020294	-0.026093	0.080566	-0.021362	0.005646	0.071869	0.02121	-0.1442	0.000763	-0.6633	-0.1918	-0.067749	0.00351	-0.048065	-0.26276	-0.084076	0	-0.061035	-0.085144	0.23834	-0.13794	-0.081329	0.001678	0.070648	-0.49698	-0.59296	0.90653	-0.003662	-0.013733
1.869	0.000916	0.28748	0.000763	-0.002747	-0.046387	-0.00885	-0.082397	0.015869	0.052795	-0.042114	-0.12711	-0.002441	-0.39032	-0.13184	0.29694	0.011902	-0.062408	-0.25314	-0.21515	-0.021057	-0.053711	-0.084839	0.23086	-0.11673	-0.083771	0.015564	0.098724	0.15579	-0.69473	0.77988	-0.004425	-0.002136
1.87	-0.006256	0.2861	-0.076752	0.010071	-0.082092	0.11032	-0.087738	0.015411	0.055542	-0.067596	-0.031433	-0.003815	0.74844	0.096436	0.39307	0.019684	-0.065155	-0.26016	-0.036469	-0.075378	-0.060425	-0.083618	0.33554	-0.077362	-0.047607	0.018768	0.000916	0.12405	-1.0034	0.27252	-0.004883	-0.015411
1.871	-0.008698	0.31754	-0.099182	0.03067	-0.088348	0.15167	-0.12543	0.00824	0.1004	-0.23453	0.054626	-0.010223	0.045776	0.20004	-0.12024	0.003967	-0.081635	-0.22232	0.15396	-0.13763	-0.04425	-0.069122	0.62256	-0.025787	-0.054779	0.011292	-0.028992	0.027618	-0.42358	-0.22949	0.000305	-0.019531
1.872	-0.009155	0.31647	0.032501	-0.00061	-0.12482	0.1294	-0.177	0.006256	0.15076	-0.04425	-0.093231	-0.011139	-0.40817	0.025177	0.51392	-0.013123	-0.08728	-0.29114	0.2214	-0.10193	-0.039978	-0.059052	0.62302	0.020752	-0.03479	0.009308	-0.013123	-0.018463	-0.18753	-0.56747	-0.002441	-0.025787
1.873	-0.002441	0.28442	0.10025	0.007019	-0.18097	0.1474	-0.098724	0.006409	0.037384	0.085144	-0.066833	-0.010529	-0.017548	-0.1506	-0.25116	-0.005188	-0.047302	-0.31799	0.011749	-0.052795	-0.033722	-0.072021	0.52826	0.009308	-0.026398	0.003815	0.015411	-0.062408	0.014038	-0.71167	0.000153	-0.02243
1.874	0.019531	0.26627	-0.006256	0.011597	-0.15579	0.052185	-0.10376	-0.006256	-0.058594	0.26032	-0.06958	-0.007324	0.050659	-0.098267	0.10132	-0.004883	-0.018768	-0.32638	-0.24124	-0.047607	-0.037384	-0.060577	0.42801	-0.012665	-0.028229	0.019989	0.066223	-0.10101	0.15152	-0.40466	-0.001373	-0.028229
1.875	0.032349	0.21271	-0.027771	0.012512	0.056915	0.091705	-0.19257	-0.013885	-0.085907	0.30762	0.009918	-0.009003	0.16602	-0.05249	-0.1831	-0.007782	0.012817	-0.33951	-0.07431	-0.054321	-0.025635	-0.058289	0.53238	-0.027466	-0.029907	0.031128	0.036011	0.0177	-0.064545	-0.21103	-0.001068	-0.024109
1.876	0.035553	0.18677	-0.093689	0.003967	0.21011	0.26703	-0.26504	-0.023651	-0.20691	0.28915	0.12482	-0.005035	-0.13916	0.009155	-0.095825	-0.010834	0.032654	-0.36438	-0.067139	0.048218	-0.018311	-0.083466	0.4808	0.006256	-0.022736	0.008698	-0.007935	-0.060577	-0.046234	-0.27512	-0.002289	-0.020447
1.877	0.027466	0.15823	-0.093536	0.013123	0.080414	0.31204	-0.28366	-0.039825	-0.1857	0.14145	0.1918	-0.001678	-0.036011	0.020447	0.52429	-0.002289	0.032654	-0.41275	-0.22522	0.12024	-0.03479	-0.081787	0.25726	-0.046387	-0.010681	-0.006104	-0.016174	-0.013428	-0.68176	-0.54321	-0.003052	-0.026398
1.878	0.018463	0.22247	-0.10346	0.019379	0.007935	0.24414	-0.26688	-0.013275	-0.10635	0.10086	0.23377	-0.004272	-0.12634	0.093689	0.35034	0.006561	0.014038	-0.42725	-0.094757	0.18677	-0.048523	-0.06897	0.22659	-0.037537	-0.018616	-0.042419	0.05188	-0.093536	-0.90637	-0.86517	-0.004272	-0.017395
1.879	0.020752	0.2385	-0.053253	0.011902	-0.005493	0.16083	-0.37064	-0.00473	-0.048065	-0.30426	0.15579	-0.005341	-0.046844	-0.010071	0.21606	0.003052	0.047302	-0.37567	0.073242	0.28244	-0.044861	-0.072784	0.35019	-0.06134	-0.036011	-0.076599	0.071411	-0.10834	-1.0701	-0.84503	0.001068	-0.022583
1.88	0.017242	0.26489	0.2388	-0.016632	-0.006104	-0.050354	-0.36194	-0.00473	0.041962	-0.62332	0.034485	-0.008545	-0.10422	0.050201	0.48981	0.00473	0.075073	-0.36163	0.34286	0.16571	-0.069733	-0.095367	0.30472	-0.051727	-0.014343	-0.059967	-0.02243	0.043335	0.8403	-0.39703	-0.002441	-0.01358
1.881	0.011902	0.22354	0.076904	-0.006409	0.006409	-0.2562	-0.26184	0.01297	0.055847	-0.24948	0.003662	0.009155	0.21683	0.036621	0.11185	0.001068	0.17044	-0.32425	0.3122	0.073853	-0.078583	-0.10895	0.15976	-0.010834	0.002747	-0.053253	-0.027008	0.023041	1.3762	0.75989	-0.005493	-0.001526
1.882	-0.001068	0.16129	-0.009766	0.006104	0.005493	-0.18265	-0.23666	0.002441	0.15518	-0.10178	0.086517	-0.009766	0.32059	0.056152	-0.42664	-0.006409	0.27878	-0.37125	0.1265	0.041351	-0.090485	-0.12817	0.041656	-0.099335	0	-0.035553	0.005646	-0.002747	0.94269	1.2462	0.000305	-0.004425
1.883	0.006104	0.15579	-0.045624	0.019684	-0.001831	0.088196	-0.26138	-0.00824	0.23544	-0.057831	0.1796	-0.009003	0.2063	0.071259	0.22614	0.006561	0.26627	-0.3833	-0.27557	-0.02594	-0.1088	-0.11215	0.042267	-0.15488	-0.009308	-0.029907	-0.016479	-0.010376	0.64041	0.92651	0.000153	-0.000153
1.884	-0.004883	0.1474	-0.16052	0.026398	-0.005188	0.26886	-0.27802	-0.004883	0.21057	-0.040131	0.084991	-0.017395	-0.62744	0.020294	-0.088654	0.000763	0.15137	-0.37552	-0.25787	-0.027161	-0.12497	-0.11917	0.046234	-0.14664	-0.014496	-0.020599	-0.030518	-0.012817	0.009155	0.35873	0.002747	0.000458
1.885	-0.02121	0.14816	-0.11459	0.03067	-0.075378	0.53863	-0.27023	0.005798	0.19959	-0.023956	-0.21881	-0.010223	-0.19028	-0.0177	-0.17487	0.016022	0.029449	-0.31769	0.041809	-0.084381	-0.11368	-0.093536	0.058441	-0.13794	0.002136	-0.011749	-0.044556	-0.020447	-0.27863	0.21484	-0.001526	-0.000916
1.886	-0.013275	0.18601	0.13321	0.00824	-0.10849	0.51529	-0.26215	0.014954	0.20981	-0.025635	-0.48355	-0.000153	-0.077667	-0.084686	-0.44815	0.001678	-0.019989	-0.32166	-0.04715	-0.030975	-0.093842	-0.0383	0.24689	-0.029144	0.013123	-0.001984	-0.037231	-0.022583	0.34042	-0.040588	-0.001831	-0.00473
1.887	-0.014496	0.15579	0.1474	0.040131	-0.10162	0.32333	-0.29648	0.015869	0.27405	0.000305	-0.3392	-0.006714	0.10132	-0.046844	-0.63843	-0.000916	-0.049744	-0.3093	-0.37888	-0.022278	-0.043182	0.007019	0.37857	0.086517	0.011749	0.001678	-0.00885	-0.021973	0.47394	-0.45776	0.000305	0.000763
1.888	0.003815	0.15167	-0.047913	0.025482	-0.077972	0.15701	-0.27893	0.004272	0.30136	-0.033264	0.012512	-0.010071	0.26916	-0.11459	-0.39841	-0.00473	-0.050507	-0.25742	-0.34164	-0.08194	-0.010834	0.02655	0.53451	0.12573	0.019531	-0.008545	0.062714	-0.022888	0.21164	-0.42999	0.000153	-0.009766
1.889	0.009308	0.15945	-0.085144	0.000458	0.004578	-0.016022	-0.1088	-0.011749	-0.035095	-0.014343	-0.11292	-0.001526	0.22263	-0.112	-0.32638	-0.005951	-0.023346	-0.16602	0.40298	-0.066376	0.005493	0.045013	0.53772	0.14053	0.000153	-0.029602	0.099182	-0.023041	0.22293	-0.44952	0.001068	-0.011139
1.89	0.016327	0.20493	-0.022125	-0.009003	-0.007477	-0.33646	-0.16037	-0.028381	-0.33264	-0.008087	-0.074768	-0.004883	0.23361	-0.083618	-0.22644	0.001373	-0.077515	-0.081024	0.49622	-0.16129	0.028992	0.084839	0.47272	0.15793	0.016785	-0.029907	0.12146	-0.021057	-0.017395	-0.47699	0.001373	-0.016022
1.891	0.021667	0.19226	0.023651	-0.002441	-0.002136	-0.54703	-0.24277	-0.016479	-0.3717	-0.004578	-0.11917	-0.002136	0.074158	-0.12299	-0.2652	0.011749	-0.035706	-0.068512	0.26688	-0.25085	0.073547	0.088348	0.39459	0.13641	0.004883	-0.019684	0.067291	-0.016785	-0.15289	-0.38788	-0.00061	-0.015717
1.892	0.032196	0.18585	-0.053406	0.011292	0.038605	-0.66025	-0.27985	-0.015259	-0.1799	0.026703	-0.044861	-0.001831	-0.18829	-0.084229	-0.24262	0.002136	-0.034332	-0.032806	0.063782	-0.18799	0.075989	0.062561	0.30395	0.17532	-0.005493	-0.007935	-0.09903	-0.016479	0.3801	-0.3125	-0.002289	-0.012665
1.893	0.032806	0.19974	-0.090485	0.007172	0.013123	-0.11444	-0.2562	-0.009613	-0.1149	0.052032	-0.054474	-0.002441	0.49271	-0.052338	-0.098419	-0.008545	-0.041504	0.056915	-0.044556	0.004425	0.053711	0.002594	0.22095	0.14633	-0.021057	-0.018768	-0.077972	-0.02182	0.27618	-0.12497	0.00061	-0.019836
1.894	0.026398	0.16388	0.052795	-0.008698	-0.052643	-0.006409	-0.25406	-0.00946	-0.080566	0.058594	-0.002899	0.000153	0.439	-0.11658	0.005035	-0.001831	-0.049133	0.19226	0.33127	-0.068512	0.034943	-0.016327	0.16586	0.041351	-0.031281	-0.026093	-0.028381	-0.023346	0.48996	-0.14694	0	-0.019073
1.895	0.012054	0.14648	0.005798	0.014954	-0.038757	-0.026093	-0.20355	-0.002441	-0.08606	0.039215	-0.006561	0.008087	-0.26215	-0.12009	0.29373	0.006714	-0.023804	0.23834	0.30884	-0.16312	0.014496	-0.032501	0.029297	0.036011	-0.041504	0.002594	-0.026245	-0.034027	-0.69122	-0.24567	-0.001068	-0.016785
1.896	0.006104	0.13992	-0.072479	0.01709	-0.080872	0.17685	-0.19455	0.011749	-0.1178	0.018768	-0.035248	0.003357	-0.25742	-0.26749	0.76141	-0.001068	-0.022583	0.23209	0.46982	-0.10101	0.01297	-0.03891	0.17868	-0.019684	-0.041351	-0.005035	0.036621	-0.056915	-1.7003	-0.30197	-0.001526	-0.007629
